<svg xmlns="http://www.w3.org/2000/svg" viewBox="0 0 100 100" width="100%" height="100%">
  <!-- ICICI Bank Maroon/Orange Rounded Base -->
  <rect x="5" y="5" width="90" height="90" rx="18" fill="#A81D23"/>
  <!-- Stylized i in flame shape -->
  <circle cx="50" cy="30" r="9" fill="#F37024"/>
  <path d="M43 45 C43 45 47 43 53 43 C58 43 61 46 61 51 L61 68 C61 72 58 74 53 74 C47 74 43 71 43 71 L43 78 C47 80 52 81 57 81 C66 81 71 75 71 67 L71 50 C71 40 64 36 53 36 C47 36 43 38 43 38 Z" fill="#FFFFFF"/>
</svg>
